<?xml version="1.0" encoding="UTF-8"?>
<svg id="Layer_1" xmlns="http://www.w3.org/2000/svg" xmlns:xlink="http://www.w3.org/1999/xlink" version="1.1" viewBox="0 0 765.75 312">
  <!-- Generator: Adobe Illustrator 29.8.3, SVG Export Plug-In . SVG Version: 2.1.1 Build 3)  -->
  <defs>
    <style>
      .st0, .st1, .st2, .st3, .st4, .st5, .st6, .st7, .st8 {
        fill: none;
      }

      .st1 {
        stroke: #196b24;
      }

      .st1, .st2, .st3, .st4, .st5, .st6, .st7 {
        stroke-width: 1.5px;
      }

      .st1, .st2, .st3, .st4, .st5, .st6, .st7, .st8 {
        stroke-miterlimit: 10;
      }

      .st2 {
        stroke: #0f9ed5;
      }

      .st9, .st10, .st11 {
        fill-rule: evenodd;
      }

      .st9, .st12 {
        fill: #a02b93;
      }

      .st13, .st14, .st15, .st16, .st17, .st18, .st19, .st20 {
        fill: #fff;
      }

      .st13, .st14, .st16, .st21 {
        font-style: italic;
      }

      .st13, .st22, .st17, .st21 {
        font-size: 14.3px;
      }

      .st13, .st21 {
        font-family: Consolas-Italic, Consolas;
      }

      .st10, .st23 {
        fill: #0f9ed5;
      }

      .st3 {
        stroke: #000;
      }

      .st24 {
        clip-path: url(#clippath-17);
      }

      .st25 {
        clip-path: url(#clippath-19);
      }

      .st26 {
        clip-path: url(#clippath-11);
      }

      .st27 {
        clip-path: url(#clippath-16);
      }

      .st28 {
        clip-path: url(#clippath-18);
      }

      .st29 {
        clip-path: url(#clippath-10);
      }

      .st30 {
        clip-path: url(#clippath-15);
      }

      .st31 {
        clip-path: url(#clippath-13);
      }

      .st32 {
        clip-path: url(#clippath-14);
      }

      .st33 {
        clip-path: url(#clippath-12);
      }

      .st34 {
        clip-path: url(#clippath-31);
      }

      .st35 {
        clip-path: url(#clippath-32);
      }

      .st36 {
        clip-path: url(#clippath-33);
      }

      .st37 {
        clip-path: url(#clippath-34);
      }

      .st38 {
        clip-path: url(#clippath-35);
      }

      .st39 {
        clip-path: url(#clippath-39);
      }

      .st40 {
        clip-path: url(#clippath-30);
      }

      .st41 {
        clip-path: url(#clippath-36);
      }

      .st42 {
        clip-path: url(#clippath-37);
      }

      .st43 {
        clip-path: url(#clippath-38);
      }

      .st44 {
        clip-path: url(#clippath-27);
      }

      .st45 {
        clip-path: url(#clippath-29);
      }

      .st46 {
        clip-path: url(#clippath-26);
      }

      .st47 {
        clip-path: url(#clippath-28);
      }

      .st48 {
        clip-path: url(#clippath-20);
      }

      .st49 {
        clip-path: url(#clippath-21);
      }

      .st50 {
        clip-path: url(#clippath-22);
      }

      .st51 {
        clip-path: url(#clippath-23);
      }

      .st52 {
        clip-path: url(#clippath-24);
      }

      .st53 {
        clip-path: url(#clippath-25);
      }

      .st54 {
        clip-path: url(#clippath-41);
      }

      .st55 {
        clip-path: url(#clippath-42);
      }

      .st56 {
        clip-path: url(#clippath-43);
      }

      .st57 {
        clip-path: url(#clippath-40);
      }

      .st58 {
        clip-path: url(#clippath-1);
      }

      .st59 {
        clip-path: url(#clippath-3);
      }

      .st60 {
        clip-path: url(#clippath-4);
      }

      .st61 {
        clip-path: url(#clippath-2);
      }

      .st62 {
        clip-path: url(#clippath-7);
      }

      .st63 {
        clip-path: url(#clippath-6);
      }

      .st64 {
        clip-path: url(#clippath-9);
      }

      .st65 {
        clip-path: url(#clippath-8);
      }

      .st66 {
        clip-path: url(#clippath-5);
      }

      .st14, .st16 {
        font-family: Aptos-Italic, Aptos;
      }

      .st14, .st18 {
        font-size: 20.33px;
      }

      .st67 {
        font-size: 14.27px;
      }

      .st67, .st68, .st22, .st17 {
        font-family: Consolas, Consolas;
      }

      .st68 {
        font-size: 12.77px;
      }

      .st69 {
        letter-spacing: 0em;
      }

      .st70 {
        letter-spacing: 0em;
      }

      .st71 {
        letter-spacing: 0em;
      }

      .st72 {
        letter-spacing: 0em;
      }

      .st73 {
        letter-spacing: 0em;
      }

      .st74 {
        letter-spacing: 0em;
      }

      .st16, .st20 {
        font-size: 18.05px;
      }

      .st75, .st11 {
        fill: #196b24;
      }

      .st4 {
        stroke: #052909;
      }

      .st18, .st19, .st20 {
        font-family: Aptos, Aptos;
      }

      .st5 {
        stroke: #410c3b;
      }

      .st19 {
        font-size: 19.55px;
      }

      .st76 {
        letter-spacing: -.02em;
      }

      .st77 {
        letter-spacing: -.02em;
      }

      .st78 {
        letter-spacing: -.02em;
      }

      .st79 {
        letter-spacing: -.03em;
      }

      .st80 {
        letter-spacing: -.02em;
      }

      .st81 {
        letter-spacing: -.03em;
      }

      .st82 {
        letter-spacing: -.02em;
      }

      .st83 {
        letter-spacing: -.02em;
      }

      .st84 {
        letter-spacing: -.02em;
      }

      .st85 {
        letter-spacing: -.02em;
      }

      .st86 {
        letter-spacing: -.02em;
      }

      .st87 {
        letter-spacing: -.02em;
      }

      .st88 {
        letter-spacing: -.02em;
      }

      .st89 {
        letter-spacing: -.01em;
      }

      .st90 {
        letter-spacing: -.01em;
      }

      .st6 {
        stroke: #024059;
      }

      .st7 {
        stroke: #a02b93;
      }

      .st91 {
        letter-spacing: .03em;
      }

      .st92 {
        letter-spacing: .03em;
      }

      .st93 {
        letter-spacing: .03em;
      }

      .st94 {
        clip-path: url(#clippath);
      }

      .st95 {
        letter-spacing: .01em;
      }

      .st96 {
        letter-spacing: .02em;
      }

      .st97 {
        letter-spacing: .02em;
      }

      .st98 {
        letter-spacing: .04em;
      }

      .st99 {
        letter-spacing: .04em;
      }

      .st100 {
        letter-spacing: .03em;
      }

      .st101 {
        letter-spacing: .03em;
      }

      .st102 {
        letter-spacing: .03em;
      }

      .st103 {
        letter-spacing: .03em;
      }

      .st104 {
        letter-spacing: .03em;
      }

      .st105 {
        letter-spacing: .03em;
      }

      .st106 {
        letter-spacing: .03em;
      }

      .st8 {
        stroke: #fff;
        stroke-width: 2px;
      }

      .st107 {
        letter-spacing: 0em;
      }

      .st108 {
        letter-spacing: 0em;
      }

      .st109 {
        letter-spacing: 0em;
      }

      .st110 {
        letter-spacing: .01em;
      }

      .st111 {
        letter-spacing: 0em;
      }

      .st112 {
        letter-spacing: 0em;
      }

      .st113 {
        letter-spacing: 0em;
      }
    </style>
    <clipPath id="clippath">
      <rect class="st0" y="0" width="765.75" height="312"/>
    </clipPath>
    <clipPath id="clippath-1">
      <rect class="st0" x="0" width="765.75" height="312"/>
    </clipPath>
    <clipPath id="clippath-2">
      <rect class="st0" x="0" width="765.75" height="312"/>
    </clipPath>
    <clipPath id="clippath-3">
      <rect class="st0" x="0" width="765.75" height="312"/>
    </clipPath>
    <clipPath id="clippath-4">
      <rect class="st0" x="0" width="765.75" height="312"/>
    </clipPath>
    <clipPath id="clippath-5">
      <rect class="st0" x="0" width="765.75" height="312"/>
    </clipPath>
    <clipPath id="clippath-6">
      <rect class="st0" x="0" width="765.75" height="312"/>
    </clipPath>
    <clipPath id="clippath-7">
      <rect class="st0" x="0" width="765.75" height="312"/>
    </clipPath>
    <clipPath id="clippath-8">
      <rect class="st0" x="0" width="765.75" height="312"/>
    </clipPath>
    <clipPath id="clippath-9">
      <rect class="st0" x="0" width="765.75" height="312"/>
    </clipPath>
    <clipPath id="clippath-10">
      <rect class="st0" x="0" width="765.75" height="312"/>
    </clipPath>
    <clipPath id="clippath-11">
      <rect class="st0" x="0" width="765.75" height="312"/>
    </clipPath>
    <clipPath id="clippath-12">
      <rect class="st0" x="0" width="765.75" height="312"/>
    </clipPath>
    <clipPath id="clippath-13">
      <rect class="st0" x="0" width="765.75" height="312"/>
    </clipPath>
    <clipPath id="clippath-14">
      <rect class="st0" x="0" width="765.75" height="312"/>
    </clipPath>
    <clipPath id="clippath-15">
      <rect class="st0" x="0" width="765.75" height="312"/>
    </clipPath>
    <clipPath id="clippath-16">
      <rect class="st0" x="0" width="765.75" height="312"/>
    </clipPath>
    <clipPath id="clippath-17">
      <rect class="st0" x="0" width="765.75" height="312"/>
    </clipPath>
    <clipPath id="clippath-18">
      <rect class="st0" x="0" width="765.75" height="312"/>
    </clipPath>
    <clipPath id="clippath-19">
      <rect class="st0" x="0" width="765.75" height="312"/>
    </clipPath>
    <clipPath id="clippath-20">
      <rect class="st0" x="0" width="765.75" height="312"/>
    </clipPath>
    <clipPath id="clippath-21">
      <rect class="st0" x="0" width="765.75" height="312"/>
    </clipPath>
    <clipPath id="clippath-22">
      <rect class="st0" x="0" width="765.75" height="312"/>
    </clipPath>
    <clipPath id="clippath-23">
      <rect class="st0" x="0" width="765.75" height="312"/>
    </clipPath>
    <clipPath id="clippath-24">
      <rect class="st0" x="0" width="765.75" height="312"/>
    </clipPath>
    <clipPath id="clippath-25">
      <rect class="st0" x="0" width="765.75" height="312"/>
    </clipPath>
    <clipPath id="clippath-26">
      <rect class="st0" x="0" width="765.75" height="312"/>
    </clipPath>
    <clipPath id="clippath-27">
      <rect class="st0" x="0" width="765.75" height="312"/>
    </clipPath>
    <clipPath id="clippath-28">
      <rect class="st0" x="0" width="765.75" height="312"/>
    </clipPath>
    <clipPath id="clippath-29">
      <rect class="st0" x="0" width="765.75" height="312"/>
    </clipPath>
    <clipPath id="clippath-30">
      <rect class="st0" x="0" width="765.75" height="312"/>
    </clipPath>
    <clipPath id="clippath-31">
      <rect class="st0" x="0" width="765.75" height="312"/>
    </clipPath>
    <clipPath id="clippath-32">
      <rect class="st0" x="0" width="765.75" height="312"/>
    </clipPath>
    <clipPath id="clippath-33">
      <rect class="st0" x="0" width="765.75" height="312"/>
    </clipPath>
    <clipPath id="clippath-34">
      <rect class="st0" x="0" width="765.75" height="312"/>
    </clipPath>
    <clipPath id="clippath-35">
      <rect class="st0" x="0" width="765.75" height="312"/>
    </clipPath>
    <clipPath id="clippath-36">
      <rect class="st0" x="0" width="765.75" height="312"/>
    </clipPath>
    <clipPath id="clippath-37">
      <rect class="st0" x="0" width="765.75" height="312"/>
    </clipPath>
    <clipPath id="clippath-38">
      <rect class="st0" x="0" width="765.75" height="312"/>
    </clipPath>
    <clipPath id="clippath-39">
      <rect class="st0" x="0" width="765.75" height="312"/>
    </clipPath>
    <clipPath id="clippath-40">
      <rect class="st0" x="0" width="765.75" height="312"/>
    </clipPath>
    <clipPath id="clippath-41">
      <rect class="st0" x="0" width="765.75" height="312"/>
    </clipPath>
    <clipPath id="clippath-42">
      <rect class="st0" x="0" width="765.75" height="312"/>
    </clipPath>
    <clipPath id="clippath-43">
      <rect class="st0" x="0" width="765.75" height="312"/>
    </clipPath>
  </defs>
  <g class="st94">
    <rect class="st15" y="0" width="765.75" height="312.1"/>
  </g>
  <rect class="st23" x="201" y="101.29" width="558" height="48.76"/>
  <rect class="st6" x="201" y="101.29" width="558" height="48.76"/>
  <rect class="st15" x="206.25" y="106.54" width="102" height="38.26"/>
  <rect class="st2" x="206.25" y="106.54" width="102" height="38.26"/>
  <g class="st58">
    <text class="st67" transform="translate(238.33 122.75)"><tspan class="st82" x="0" y="0">&lt;</tspan><tspan class="st92" x="7.51" y="0">T</tspan><tspan class="st82" x="15.74" y="0">im</tspan><tspan class="st92" x="30.75" y="0">e</tspan><tspan x="38.99" y="0"> </tspan></text>
  </g>
  <g class="st61">
    <text class="st22" transform="translate(230.58 139.28)"><tspan class="st80" x="0" y="0">o</tspan><tspan class="st102" x="7.5" y="0">f</tspan><tspan class="st81" x="15.74" y="0">fs</tspan><tspan class="st102" x="30.75" y="0">e</tspan><tspan class="st80" x="38.98" y="0">t</tspan><tspan x="46.49" y="0">&gt;</tspan></text>
  </g>
  <rect class="st15" x="420.75" y="106.54" width="102" height="38.26"/>
  <rect class="st2" x="420.75" y="106.54" width="102" height="38.26"/>
  <g class="st59">
    <text class="st67" transform="translate(429.22 131.17)"><tspan class="st78" x="0" y="0">&lt;</tspan><tspan class="st103" x="7.53" y="0">D</tspan><tspan class="st78" x="15.8" y="0">ir</tspan><tspan class="st103" x="30.87" y="0">e</tspan><tspan class="st78" x="39.13" y="0">ct</tspan><tspan class="st104" x="54.2" y="0">i</tspan><tspan class="st76" x="62.46" y="0">on</tspan><tspan x="77.53" y="0">&gt;</tspan></text>
  </g>
  <rect class="st15" x="313.5" y="106.54" width="102" height="38.26"/>
  <rect class="st2" x="313.5" y="106.54" width="102" height="38.26"/>
  <g class="st60">
    <text class="st67" transform="translate(326.2 131.17)"><tspan class="st82" x="0" y="0">&lt;</tspan><tspan class="st92" x="7.51" y="0">P</tspan><tspan class="st82" x="15.74" y="0">kt</tspan><tspan class="st92" x="30.75" y="0"> </tspan><tspan class="st82" x="38.99" y="0">Si</tspan><tspan class="st93" x="54" y="0">z</tspan><tspan class="st82" x="62.23" y="0">e</tspan><tspan x="69.74" y="0">&gt;</tspan></text>
  </g>
  <rect class="st75" x="527.25" y="106.54" width="224.25" height="38.26"/>
  <rect class="st3" x="527.25" y="106.54" width="224.25" height="38.26"/>
  <g class="st66">
    <text class="st17" transform="translate(558.63 122.9)"><tspan class="st80" x="0" y="0">&lt;</tspan><tspan class="st101" x="7.5" y="0">F</tspan><tspan class="st80" x="15.74" y="0">ir</tspan><tspan class="st100" x="30.75" y="0">s</tspan><tspan class="st79" x="38.98" y="0">t</tspan><tspan x="46.49" y="0"> </tspan></text>
  </g>
  <g class="st63">
    <text class="st13" transform="translate(612.95 122.9)"><tspan x="0" y="0">j</tspan></text>
  </g>
  <g class="st62">
    <text class="st17" transform="translate(620.7 122.9)"><tspan x="0" y="0"> </tspan></text>
  </g>
  <g class="st65">
    <text class="st17" transform="translate(628.48 122.9)"><tspan class="st80" x="0" y="0">b</tspan><tspan class="st101" x="7.5" y="0">y</tspan><tspan class="st80" x="15.74" y="0">te</tspan><tspan class="st100" x="30.75" y="0">s</tspan><tspan class="st79" x="38.98" y="0" xml:space="preserve"> o</tspan><tspan class="st100" x="53.99" y="0">f</tspan><tspan class="st80" x="62.23" y="0" xml:space="preserve"> P</tspan><tspan class="st101" x="77.24" y="0">k</tspan><tspan class="st80" x="85.47" y="0">t</tspan><tspan x="92.97" y="0"> </tspan></text>
  </g>
  <g class="st64">
    <text class="st17" transform="translate(609.08 139.45)"><tspan class="st80" x="0" y="0">p</tspan><tspan class="st101" x="7.5" y="0">a</tspan><tspan class="st80" x="15.74" y="0">yl</tspan><tspan class="st100" x="30.75" y="0">o</tspan><tspan class="st79" x="38.98" y="0">ad</tspan><tspan x="53.99" y="0">&gt;</tspan></text>
  </g>
  <rect class="st75" x="327.75" y="181.56" width="431.25" height="48.76"/>
  <rect class="st4" x="327.75" y="181.56" width="431.25" height="48.76"/>
  <rect class="st15" x="333.75" y="186.06" width="102" height="37.51"/>
  <rect class="st1" x="333.75" y="186.06" width="102" height="37.51"/>
  <g class="st29">
    <text class="st22" transform="translate(361.67 210.47)"><tspan class="st85" x="0" y="0">&lt;</tspan><tspan class="st106" x="7.53" y="0">B</tspan><tspan class="st85" x="15.8" y="0">0</tspan><tspan x="23.33" y="0">0</tspan></text>
  </g>
  <g class="st26">
    <text class="st21" transform="translate(392.73 210.47)"><tspan x="0" y="0">1</tspan></text>
  </g>
  <g class="st33">
    <text class="st22" transform="translate(400.5 210.47)"><tspan x="0" y="0">&gt;</tspan></text>
  </g>
  <rect class="st15" x="545.25" y="186.06" width="102" height="37.51"/>
  <rect class="st1" x="545.25" y="186.06" width="102" height="37.51"/>
  <g class="st31">
    <text class="st22" transform="translate(581.58 210.47)"><tspan class="st80" x="0" y="0">&lt;</tspan><tspan class="st101" x="7.5" y="0">B</tspan><tspan class="st80" x="15.74" y="0">…</tspan><tspan x="23.24" y="0">&gt;</tspan></text>
  </g>
  <rect class="st15" x="439.5" y="186.06" width="102" height="37.51"/>
  <rect class="st1" x="439.5" y="186.06" width="102" height="37.51"/>
  <g class="st32">
    <text class="st22" transform="translate(467.75 210.47)"><tspan class="st80" x="0" y="0">&lt;</tspan><tspan class="st101" x="7.5" y="0">B</tspan><tspan class="st80" x="15.74" y="0">0</tspan><tspan x="23.24" y="0">0</tspan></text>
  </g>
  <g class="st30">
    <text class="st21" transform="translate(498.8 210.47)"><tspan x="0" y="0">2</tspan></text>
  </g>
  <g class="st27">
    <text class="st22" transform="translate(506.55 210.47)"><tspan x="0" y="0">&gt;</tspan></text>
  </g>
  <rect class="st15" x="651.75" y="186.06" width="102" height="37.51"/>
  <rect class="st1" x="651.75" y="186.06" width="102" height="37.51"/>
  <g class="st24">
    <text class="st22" transform="translate(687.63 210.47)"><tspan x="0" y="0">&lt;</tspan></text>
  </g>
  <g class="st28">
    <text class="st22" transform="translate(695.38 210.47)"><tspan x="0" y="0">B</tspan></text>
  </g>
  <g class="st25">
    <text class="st21" transform="translate(703.15 210.47)"><tspan x="0" y="0">j</tspan></text>
  </g>
  <g class="st48">
    <text class="st22" transform="translate(710.9 210.47)"><tspan x="0" y="0">&gt;</tspan></text>
  </g>
  <rect class="st15" x="4.5" y="13.5" width="651" height="51.77"/>
  <rect class="st3" x="4.5" y="13.5" width="651" height="51.77"/>
  <rect class="st12" x="12.38" y="20.63" width="126.75" height="38.26"/>
  <rect class="st8" x="12.38" y="20.63" width="126.75" height="38.26"/>
  <g class="st49">
    <text class="st19" transform="translate(21.33 45.55)"><tspan class="st73" x="0" y="0">&lt;</tspan><tspan class="st110" x="10.46" y="0">F</tspan><tspan class="st112" x="20.93" y="0">l</tspan><tspan class="st89" x="26.15" y="0">o</tspan><tspan class="st112" x="36.67" y="0">w</tspan><tspan class="st90" x="50.89" y="0"> </tspan><tspan class="st95" x="54.65" y="0">M</tspan><tspan class="st111" x="70.39" y="0">e</tspan><tspan class="st88" x="80.87" y="0">t</tspan><tspan class="st108" x="86.87" y="0">a</tspan><tspan x="97.34" y="0">&gt;</tspan></text>
  </g>
  <rect class="st23" x="139.12" y="20.63" width="127.5" height="38.26"/>
  <rect class="st8" x="139.12" y="20.63" width="127.5" height="38.26"/>
  <g class="st50">
    <text class="st18" transform="translate(173.75 46.1)"><tspan class="st86" x="0" y="0">&lt;</tspan><tspan class="st96" x="10.51" y="0"> </tspan><tspan x="14.97" y="0">P</tspan></text>
  </g>
  <g class="st51">
    <text class="st14" transform="translate(200.03 46.1)"><tspan class="st87" x="0" y="0">0</tspan><tspan class="st71" x="10.53" y="0">1</tspan></text>
  </g>
  <g class="st52">
    <text class="st18" transform="translate(221.33 46.1)"><tspan x="0" y="0">&gt;</tspan></text>
  </g>
  <rect class="st23" x="266.62" y="20.63" width="127.5" height="38.26"/>
  <rect class="st8" x="266.62" y="20.63" width="127.5" height="38.26"/>
  <g class="st53">
    <text class="st20" transform="translate(304.02 45.05)"><tspan class="st109" x="0" y="0">&lt;</tspan><tspan class="st74" x="9.71" y="0"> </tspan><tspan x="13.43" y="0">P</tspan></text>
  </g>
  <g class="st46">
    <text class="st16" transform="translate(327.67 45.05)"><tspan class="st107" x="0" y="0">0</tspan><tspan class="st72" x="9.73" y="0">2</tspan></text>
  </g>
  <g class="st44">
    <text class="st20" transform="translate(346.95 45.05)"><tspan x="0" y="0">&gt;</tspan></text>
  </g>
  <rect class="st23" x="394.13" y="20.63" width="127.5" height="38.26"/>
  <rect class="st8" x="394.13" y="20.63" width="127.5" height="38.26"/>
  <g class="st47">
    <text class="st18" transform="translate(433.52 46.1)"><tspan class="st87" x="0" y="0">&lt;</tspan><tspan class="st97" x="10.53" y="0"> </tspan><tspan x="14.99" y="0">P</tspan></text>
  </g>
  <g class="st45">
    <text class="st14" transform="translate(459.83 46.1)"><tspan class="st113" x="0" y="0">.</tspan><tspan x="5.99" y="0">.</tspan></text>
  </g>
  <g class="st40">
    <text class="st18" transform="translate(471.35 46.1)"><tspan x="0" y="0">&gt;</tspan></text>
  </g>
  <rect class="st23" x="520.13" y="20.63" width="127.5" height="38.26"/>
  <rect class="st8" x="520.13" y="20.63" width="127.5" height="38.26"/>
  <g class="st34">
    <text class="st18" transform="translate(563.25 46.1)"><tspan class="st86" x="0" y="0">&lt;</tspan><tspan class="st96" x="10.51" y="0"> </tspan><tspan x="14.97" y="0">P</tspan></text>
  </g>
  <g class="st35">
    <text class="st14" transform="translate(589.55 46.1)"><tspan x="0" y="0">i</tspan></text>
  </g>
  <g class="st36">
    <text class="st18" transform="translate(594.18 46.1)"><tspan x="0" y="0">&gt;</tspan></text>
  </g>
  <rect class="st15" x="12.75" y="3.01" width="150.75" height="15.76"/>
  <g class="st37">
    <text class="st68" transform="translate(19.65 15.1)"><tspan class="st98" x="0" y="0">C</tspan><tspan class="st84" x="7.48" y="0">u</tspan><tspan class="st99" x="14.24" y="0">st</tspan><tspan class="st84" x="29.21" y="0">o</tspan><tspan class="st99" x="35.96" y="0">m </tspan><tspan class="st84" x="50.93" y="0">F</tspan><tspan class="st98" x="57.68" y="0">lo</tspan><tspan class="st84" x="72.65" y="0">w</tspan><tspan class="st98" x="79.41" y="0" xml:space="preserve"> R</tspan><tspan class="st84" x="94.37" y="0">e</tspan><tspan class="st98" x="101.13" y="0">co</tspan><tspan class="st83" x="116.1" y="0">r</tspan><tspan class="st69" x="122.85" y="0">d</tspan></text>
  </g>
  <polygon class="st10" points="431.63 90.03 437.44 90.03 437.44 59.64 449.06 59.64 449.06 90.03 454.87 90.03 443.25 101.66 431.63 90.03"/>
  <polygon class="st8" points="431.63 90.03 437.44 90.03 437.44 59.64 449.06 59.64 449.06 90.03 454.87 90.03 443.25 101.66 431.63 90.03"/>
  <polygon class="st11" points="637.13 169.93 643.13 169.93 643.13 142.92 655.13 142.92 655.13 169.93 661.13 169.93 649.13 181.93 637.13 169.93"/>
  <polygon class="st8" points="637.13 169.93 643.13 169.93 643.13 142.92 655.13 142.92 655.13 169.93 661.13 169.93 649.13 181.93 637.13 169.93"/>
  <rect class="st12" x="4.5" y="259.58" width="754.5" height="45.76"/>
  <rect class="st5" x="4.5" y="259.58" width="754.5" height="45.76"/>
  <rect class="st15" x="117.75" y="264.83" width="102" height="35.26"/>
  <rect class="st7" x="117.75" y="264.83" width="102" height="35.26"/>
  <g class="st38">
    <text class="st67" transform="translate(130.35 288.28)"><tspan class="st82" x="0" y="0">&lt;</tspan><tspan class="st92" x="7.51" y="0">R</tspan><tspan class="st82" x="15.74" y="0">em</tspan><tspan class="st92" x="30.75" y="0"> </tspan><tspan class="st82" x="38.99" y="0">IP</tspan><tspan class="st92" x="54" y="0">v</tspan><tspan class="st82" x="62.23" y="0">4</tspan><tspan class="st70" x="69.74" y="0">&gt;</tspan></text>
  </g>
  <rect class="st15" x="435" y="264.83" width="102" height="35.26"/>
  <rect class="st7" x="435" y="264.83" width="102" height="35.26"/>
  <g class="st41">
    <text class="st67" transform="translate(447.77 288.28)"><tspan class="st82" x="0" y="0">&lt;</tspan><tspan class="st93" x="7.51" y="0">P</tspan><tspan class="st82" x="15.74" y="0">ro</tspan><tspan class="st91" x="30.75" y="0">t</tspan><tspan class="st82" x="38.99" y="0">oc</tspan><tspan class="st93" x="54" y="0">o</tspan><tspan class="st82" x="62.23" y="0">l</tspan><tspan x="69.74" y="0">&gt;</tspan></text>
  </g>
  <rect class="st15" x="329.25" y="264.83" width="102" height="35.26"/>
  <rect class="st7" x="329.25" y="264.83" width="102" height="35.26"/>
  <g class="st42">
    <text class="st67" transform="translate(341.98 288.28)"><tspan class="st82" x="0" y="0">&lt;</tspan><tspan class="st92" x="7.51" y="0">D</tspan><tspan class="st82" x="15.74" y="0">ev</tspan><tspan class="st92" x="30.75" y="0"> </tspan><tspan class="st82" x="38.99" y="0">po</tspan><tspan class="st91" x="54" y="0">r</tspan><tspan class="st82" x="62.23" y="0">t</tspan><tspan x="69.74" y="0">&gt;</tspan></text>
  </g>
  <rect class="st15" x="223.5" y="264.83" width="102" height="35.26"/>
  <rect class="st7" x="223.5" y="264.83" width="102" height="35.26"/>
  <g class="st43">
    <text class="st67" transform="translate(236.15 288.28)"><tspan class="st78" x="0" y="0">&lt;</tspan><tspan class="st103" x="7.53" y="0">R</tspan><tspan class="st78" x="15.8" y="0">em</tspan><tspan class="st105" x="30.87" y="0"> </tspan><tspan class="st77" x="39.13" y="0">po</tspan><tspan class="st103" x="54.2" y="0">r</tspan><tspan class="st78" x="62.46" y="0">t</tspan><tspan x="69.99" y="0">&gt;</tspan></text>
  </g>
  <rect class="st15" x="542.25" y="264.83" width="102" height="35.26"/>
  <rect class="st7" x="542.25" y="264.83" width="102" height="35.26"/>
  <g class="st39">
    <text class="st67" transform="translate(570.3 279.85)"><tspan class="st82" x="0" y="0">&lt;</tspan><tspan class="st93" x="7.51" y="0">T</tspan><tspan class="st82" x="15.74" y="0">ot</tspan><tspan class="st91" x="30.75" y="0">a</tspan><tspan x="38.99" y="0">l</tspan></text>
  </g>
  <g class="st57">
    <text class="st22" transform="translate(550.88 296.38)"><tspan class="st85" x="0" y="0">b</tspan><tspan class="st106" x="7.53" y="0">y</tspan><tspan class="st85" x="15.8" y="0">te</tspan><tspan class="st106" x="30.86" y="0"> </tspan><tspan class="st85" x="39.12" y="0">co</tspan><tspan class="st106" x="54.19" y="0">u</tspan><tspan class="st85" x="62.45" y="0">nt</tspan><tspan x="77.52" y="0">&gt;</tspan></text>
  </g>
  <rect class="st15" x="648.75" y="264.83" width="102" height="35.26"/>
  <rect class="st7" x="648.75" y="264.83" width="102" height="35.26"/>
  <g class="st54">
    <text class="st67" transform="translate(677.28 279.85)"><tspan class="st78" x="0" y="0">&lt;</tspan><tspan class="st103" x="7.53" y="0">T</tspan><tspan class="st78" x="15.8" y="0">ot</tspan><tspan class="st103" x="30.87" y="0">a</tspan><tspan x="39.13" y="0">l</tspan></text>
  </g>
  <g class="st55">
    <text class="st22" transform="translate(661.75 296.38)"><tspan class="st85" x="0" y="0">P</tspan><tspan class="st106" x="7.53" y="0">k</tspan><tspan class="st85" x="15.8" y="0">t </tspan><tspan class="st106" x="30.86" y="0">c</tspan><tspan class="st85" x="39.12" y="0">ou</tspan><tspan class="st106" x="54.19" y="0">n</tspan><tspan class="st85" x="62.45" y="0">t</tspan><tspan x="69.99" y="0">&gt;</tspan></text>
  </g>
  <rect class="st15" x="11.25" y="264.83" width="102" height="35.26"/>
  <rect class="st7" x="11.25" y="264.83" width="102" height="35.26"/>
  <g class="st56">
    <text class="st67" transform="translate(19.62 288.28)"><tspan class="st82" x="0" y="0">&lt;</tspan><tspan class="st92" x="7.51" y="0">T</tspan><tspan class="st82" x="15.74" y="0">im</tspan><tspan class="st92" x="30.75" y="0">e</tspan><tspan class="st82" x="38.99" y="0">st</tspan><tspan class="st92" x="54" y="0">a</tspan><tspan class="st82" x="62.23" y="0">mp</tspan><tspan class="st70" x="77.24" y="0">&gt;</tspan></text>
  </g>
  <polygon class="st9" points="57.38 248.33 63.19 248.33 63.19 58.89 74.81 58.89 74.81 248.33 80.62 248.33 69 259.96 57.38 248.33"/>
  <polygon class="st8" points="57.38 248.33 63.19 248.33 63.19 58.89 74.81 58.89 74.81 248.33 80.62 248.33 69 259.96 57.38 248.33"/>
</svg>